<svg width="17" height="16" viewBox="0 0 17 16" fill="none" xmlns="http://www.w3.org/2000/svg">
<g clip-path="url(#clip0_960_8604)">
<path d="M13.8359 2C14.1896 2 14.5287 2.14048 14.7787 2.39052C15.0288 2.64057 15.1693 2.97971 15.1693 3.33333V12.6667C15.1693 13.0203 15.0288 13.3594 14.7787 13.6095C14.5287 13.8595 14.1896 14 13.8359 14H3.16927C2.81565 14 2.47651 13.8595 2.22646 13.6095C1.97641 13.3594 1.83594 13.0203 1.83594 12.6667V3.33333C1.83594 2.97971 1.97641 2.64057 2.22646 2.39052C2.47651 2.14048 2.81565 2 3.16927 2H13.8359ZM13.8359 3.33333H3.16927V12.6667H3.7886L9.99394 6.46133C10.0713 6.38393 10.1632 6.32253 10.2643 6.28063C10.3654 6.23874 10.4738 6.21718 10.5833 6.21718C10.6927 6.21718 10.8011 6.23874 10.9022 6.28063C11.0033 6.32253 11.0952 6.38393 11.1726 6.46133L13.8359 9.124V3.33333ZM10.5833 7.75733L5.67394 12.6667H13.8359V11.01L10.5833 7.75733ZM5.5026 4.66667C5.76782 4.66667 6.02217 4.77202 6.20971 4.95956C6.39725 5.1471 6.5026 5.40145 6.5026 5.66667C6.5026 5.93188 6.39725 6.18624 6.20971 6.37377C6.02217 6.56131 5.76782 6.66667 5.5026 6.66667C5.23739 6.66667 4.98303 6.56131 4.7955 6.37377C4.60796 6.18624 4.5026 5.93188 4.5026 5.66667C4.5026 5.40145 4.60796 5.1471 4.7955 4.95956C4.98303 4.77202 5.23739 4.66667 5.5026 4.66667Z" fill="#9D9D9D"/>
</g>
<defs>
<clipPath id="clip0_960_8604">
<rect width="16" height="16" fill="white" transform="translate(0.5)"/>
</clipPath>
</defs>
</svg>
