<svg width="15" height="13" viewBox="0 0 15 13" fill="none" xmlns="http://www.w3.org/2000/svg">
<path d="M2.16927 1.66659H4.16927L5.5026 0.333252H9.5026L10.8359 1.66659H12.8359C13.1896 1.66659 13.5287 1.80706 13.7787 2.05711C14.0288 2.30716 14.1693 2.6463 14.1693 2.99992V10.9999C14.1693 11.3535 14.0288 11.6927 13.7787 11.9427C13.5287 12.1928 13.1896 12.3333 12.8359 12.3333H2.16927C1.81565 12.3333 1.47651 12.1928 1.22646 11.9427C0.976413 11.6927 0.835938 11.3535 0.835938 10.9999V2.99992C0.835937 2.6463 0.976413 2.30716 1.22646 2.05711C1.47651 1.80706 1.81565 1.66659 2.16927 1.66659ZM7.5026 3.66659C6.61855 3.66659 5.7707 4.01777 5.14558 4.6429C4.52046 5.26802 4.16927 6.11586 4.16927 6.99992C4.16927 7.88397 4.52046 8.73182 5.14558 9.35694C5.7707 9.98206 6.61855 10.3333 7.5026 10.3333C8.38666 10.3333 9.2345 9.98206 9.85963 9.35694C10.4847 8.73182 10.8359 7.88397 10.8359 6.99992C10.8359 6.11586 10.4847 5.26802 9.85963 4.6429C9.2345 4.01777 8.38666 3.66659 7.5026 3.66659ZM7.5026 4.99992C8.03304 4.99992 8.54174 5.21063 8.91682 5.5857C9.29189 5.96078 9.5026 6.46949 9.5026 6.99992C9.5026 7.53035 9.29189 8.03906 8.91682 8.41413C8.54174 8.78921 8.03304 8.99992 7.5026 8.99992C6.97217 8.99992 6.46346 8.78921 6.08839 8.41413C5.71332 8.03906 5.5026 7.53035 5.5026 6.99992C5.5026 6.46949 5.71332 5.96078 6.08839 5.5857C6.46346 5.21063 6.97217 4.99992 7.5026 4.99992Z" fill="#80808E"/>
</svg>
