<svg width="150" height="38" viewBox="0 0 150 38" fill="none" xmlns="http://www.w3.org/2000/svg">
<g clip-path="url(#clip0_1012_3342)">
<path d="M56.6342 13.4707H43.5156V16.6001H56.6342V13.4707Z" fill="#3659A4"/>
<path d="M78.2513 23.3164H66.3828V26.4458H78.2513V23.3164Z" fill="#3659A4"/>
<path d="M45.575 26.4444H42.1484L48.7081 14.7559L51.4006 16.3233L45.575 26.4444Z" fill="#3659A4"/>
<path d="M54.3705 26.5518L51.5815 22.5064H47.7812V19.377H53.2107L57.7488 26.5518H54.3705Z" fill="#3659A4"/>
<path d="M61.5957 26.1161H58.4844V13.5938H64.3528V16.7232H61.5957V26.1161Z" fill="#3659A4"/>
<path d="M57.6227 37.8784H48.4686C45.6087 37.8784 43.2812 35.5382 43.2812 32.6609C43.2812 29.7836 45.6079 27.4434 48.4686 27.4434H57.6227C60.4826 27.4434 62.8101 29.7836 62.8101 32.6609C62.8101 35.5382 60.4834 37.8784 57.6227 37.8784ZM48.4686 30.5736C47.3243 30.5736 46.3926 31.51 46.3926 32.6617C46.3926 33.8134 47.3235 34.7498 48.4686 34.7498H57.6227C58.767 34.7498 59.6987 33.8134 59.6987 32.6617C59.6987 31.51 58.7678 30.5736 57.6227 30.5736H48.4686Z" fill="#3659A4"/>
<path d="M85.0097 13.6445H81.8984V37.4554H85.0097V13.6445Z" fill="#3659A4"/>
<path d="M79.1811 34.1699H66.0625V37.2993H79.1811V34.1699Z" fill="#3659A4"/>
<path d="M69.2129 13.6445H66.1016V35.325H69.2129V13.6445Z" fill="#3659A4"/>
<path d="M79.1894 13.6445H76.0781V35.325H79.1894V13.6445Z" fill="#3659A4"/>
<path d="M100.798 13.4707H87.6797V16.6001H100.798V13.4707Z" fill="black"/>
<path d="M112.153 13.6437H112.109V31.7258H115.221V31.653H128.965V28.5236H115.221V24.5525H128.965V21.4231H115.221V16.6001H128.965V13.4707H112.153V13.6437Z" fill="black"/>
<path d="M128.867 34.1699H112.055V37.2993H128.867V34.1699Z" fill="black"/>
<path d="M103.633 37.4539H106.744V16.7224H109.5V13.5938H103.633V37.4539Z" fill="black"/>
<path d="M146.884 13.6445V21.4239H139.805V24.5533H146.884V37.4554H149.995V13.6445H146.884Z" fill="black"/>
<path d="M135.588 13.6445H132.476V34.1702H132.438V37.2996H145.555V34.1702H135.588V13.6445Z" fill="black"/>
<path d="M99.3333 17.7461H96.222V34.1691H92.5237V17.7461H89.4124V34.1691H87.6797V37.2985H100.797V34.1691H99.3333V17.7461Z" fill="black"/>
<path d="M0 0V6.2612H30.7488V20.3166H28.4541L25.9608 17.5826H17.1811L25.4144 26.5778H36.9746V0H0Z" fill="#2A4C9E"/>
<path d="M5.56798 9.70508H0V37.8785H36.9746V30.1939H24.0553L5.56798 9.70508Z" fill="#2A4C9E"/>
</g>
<defs>
<clipPath id="clip0_1012_3342">
<rect width="150" height="37.8788" fill="white"/>
</clipPath>
</defs>
</svg>
