<svg width="17" height="17" viewBox="0 0 17 17" fill="none" xmlns="http://www.w3.org/2000/svg">
<path d="M3.16927 3.16659H5.16927L6.5026 1.83325H10.5026L11.8359 3.16659H13.8359C14.1896 3.16659 14.5287 3.30706 14.7787 3.55711C15.0288 3.80716 15.1693 4.1463 15.1693 4.49992V12.4999C15.1693 12.8535 15.0288 13.1927 14.7787 13.4427C14.5287 13.6928 14.1896 13.8333 13.8359 13.8333H3.16927C2.81565 13.8333 2.47651 13.6928 2.22646 13.4427C1.97641 13.1927 1.83594 12.8535 1.83594 12.4999V4.49992C1.83594 4.1463 1.97641 3.80716 2.22646 3.55711C2.47651 3.30706 2.81565 3.16659 3.16927 3.16659ZM8.5026 5.16659C7.61855 5.16659 6.7707 5.51777 6.14558 6.1429C5.52046 6.76802 5.16927 7.61586 5.16927 8.49992C5.16927 9.38397 5.52046 10.2318 6.14558 10.8569C6.7707 11.4821 7.61855 11.8333 8.5026 11.8333C9.38666 11.8333 10.2345 11.4821 10.8596 10.8569C11.4847 10.2318 11.8359 9.38397 11.8359 8.49992C11.8359 7.61586 11.4847 6.76802 10.8596 6.1429C10.2345 5.51777 9.38666 5.16659 8.5026 5.16659ZM8.5026 6.49992C9.03304 6.49992 9.54174 6.71063 9.91682 7.0857C10.2919 7.46078 10.5026 7.96949 10.5026 8.49992C10.5026 9.03035 10.2919 9.53906 9.91682 9.91413C9.54174 10.2892 9.03304 10.4999 8.5026 10.4999C7.97217 10.4999 7.46346 10.2892 7.08839 9.91413C6.71332 9.53906 6.5026 9.03035 6.5026 8.49992C6.5026 7.96949 6.71332 7.46078 7.08839 7.0857C7.46346 6.71063 7.97217 6.49992 8.5026 6.49992Z" fill="#80808E"/>
</svg>
