<svg width="17" height="17" viewBox="0 0 17 17" fill="none" xmlns="http://www.w3.org/2000/svg">
<path d="M3.16927 3.16732H5.16927L6.5026 1.83398H10.5026L11.8359 3.16732H13.8359C14.1896 3.16732 14.5287 3.30779 14.7787 3.55784C15.0288 3.80789 15.1693 4.14703 15.1693 4.50065V12.5007C15.1693 12.8543 15.0288 13.1934 14.7787 13.4435C14.5287 13.6935 14.1896 13.834 13.8359 13.834H3.16927C2.81565 13.834 2.47651 13.6935 2.22646 13.4435C1.97641 13.1934 1.83594 12.8543 1.83594 12.5007V4.50065C1.83594 4.14703 1.97641 3.80789 2.22646 3.55784C2.47651 3.30779 2.81565 3.16732 3.16927 3.16732ZM8.5026 5.16732C7.61855 5.16732 6.7707 5.51851 6.14558 6.14363C5.52046 6.76875 5.16927 7.6166 5.16927 8.50065C5.16927 9.38471 5.52046 10.2326 6.14558 10.8577C6.7707 11.4828 7.61855 11.834 8.5026 11.834C9.38666 11.834 10.2345 11.4828 10.8596 10.8577C11.4847 10.2326 11.8359 9.38471 11.8359 8.50065C11.8359 7.6166 11.4847 6.76875 10.8596 6.14363C10.2345 5.51851 9.38666 5.16732 8.5026 5.16732ZM8.5026 6.50065C9.03304 6.50065 9.54174 6.71136 9.91682 7.08644C10.2919 7.46151 10.5026 7.97022 10.5026 8.50065C10.5026 9.03108 10.2919 9.53979 9.91682 9.91487C9.54174 10.2899 9.03304 10.5007 8.5026 10.5007C7.97217 10.5007 7.46346 10.2899 7.08839 9.91487C6.71332 9.53979 6.5026 9.03108 6.5026 8.50065C6.5026 7.97022 6.71332 7.46151 7.08839 7.08644C7.46346 6.71136 7.97217 6.50065 8.5026 6.50065Z" fill="#80808E"/>
</svg>
